<svg width="1500" height="339" viewBox="0 0 1500 339" fill="none" xmlns="http://www.w3.org/2000/svg">
<g clip-path="url(#clip0_3052_914)">
<path d="M453.039 241.568L490.042 246.062C490.658 250.363 492.08 253.32 494.307 254.934C497.382 257.238 502.223 258.39 508.833 258.39C517.286 258.39 523.627 257.123 527.853 254.588C530.696 252.898 532.848 250.171 534.309 246.408C535.307 243.719 535.806 238.764 535.806 231.544V213.685C526.124 226.896 513.905 233.502 499.149 233.502C482.704 233.502 469.677 226.551 460.071 212.648C452.539 201.663 448.774 187.991 448.774 171.629C448.774 151.121 453.693 135.45 463.529 124.62C473.443 113.789 485.739 108.374 500.417 108.374C515.556 108.374 528.046 115.018 537.882 128.307V111.139H568.2V220.944C568.2 235.385 567.009 246.177 564.626 253.32C562.244 260.464 558.901 266.072 554.597 270.143C550.294 274.213 544.53 277.401 537.305 279.706C530.159 282.011 521.091 283.162 510.1 283.162C489.351 283.162 474.634 279.591 465.949 272.447C457.265 265.381 452.923 256.393 452.923 245.486C452.923 244.41 452.962 243.104 453.039 241.568ZM481.973 169.786C481.973 182.767 484.471 192.292 489.466 198.361C494.538 204.353 500.763 207.347 508.141 207.347C516.056 207.347 522.742 204.276 528.198 198.13C533.656 191.909 536.383 182.729 536.383 170.593C536.383 157.918 533.77 148.51 528.545 142.364C523.319 136.219 516.71 133.147 508.718 133.147C500.956 133.147 494.538 136.18 489.466 142.249C484.471 148.24 481.973 157.419 481.973 169.786Z" fill="#191919"/>
<path d="M657.089 194.558L689.366 199.973C685.216 211.803 678.646 220.829 669.654 227.05C660.74 233.196 649.558 236.267 636.108 236.267C614.821 236.267 599.066 229.316 588.845 215.413C580.777 204.276 576.741 190.218 576.741 173.242C576.741 152.964 582.045 137.102 592.65 125.657C603.255 114.135 616.666 108.374 632.881 108.374C651.094 108.374 665.465 114.404 675.994 126.464C686.523 138.446 691.556 156.843 691.096 181.654H609.941C610.171 191.256 612.784 198.744 617.78 204.122C622.775 209.421 629 212.072 636.454 212.072C641.527 212.072 645.792 210.689 649.25 207.923C652.709 205.158 655.321 200.704 657.089 194.558ZM658.933 161.836C658.702 152.465 656.281 145.36 651.671 140.52C647.06 135.604 641.45 133.147 634.841 133.147C627.771 133.147 621.93 135.72 617.319 140.866C612.707 146.013 610.44 153.002 610.517 161.836H658.933Z" fill="#191919"/>
<path d="M814.801 233.502H782.409V171.053C782.409 157.841 781.718 149.315 780.334 145.474C778.951 141.557 776.683 138.523 773.533 136.372C770.459 134.222 766.731 133.147 762.351 133.147C756.741 133.147 751.707 134.682 747.25 137.755C742.792 140.828 739.718 144.898 738.027 149.968C736.414 155.038 735.607 164.41 735.607 178.082V233.502H703.214V111.139H733.302V129.114C743.983 115.287 757.432 108.374 773.648 108.374C780.796 108.374 787.328 109.68 793.244 112.292C799.162 114.826 803.619 118.091 806.617 122.085C809.691 126.079 811.804 130.611 812.957 135.681C814.187 140.751 814.801 148.01 814.801 157.458V233.502Z" fill="#191919"/>
<path d="M826.111 170.593C826.111 159.839 828.763 149.431 834.065 139.368C839.367 129.306 846.861 121.624 856.544 116.324C866.304 111.024 877.178 108.374 889.167 108.374C907.688 108.374 922.867 114.404 934.701 126.464C946.537 138.446 952.453 153.617 952.453 171.975C952.453 190.488 946.46 205.849 934.47 218.064C922.559 230.2 907.534 236.267 889.398 236.267C878.177 236.267 867.456 233.733 857.236 228.663C847.092 223.594 839.367 216.181 834.065 206.425C828.763 196.594 826.111 184.65 826.111 170.593ZM859.311 172.32C859.311 184.458 862.192 193.752 867.956 200.204C873.72 206.656 880.829 209.883 889.282 209.883C897.736 209.883 904.807 206.656 910.494 200.204C916.257 193.752 919.139 184.381 919.139 172.091C919.139 160.107 916.257 150.89 910.494 144.438C904.807 137.986 897.736 134.759 889.282 134.759C880.829 134.759 873.72 137.986 867.956 144.438C862.192 150.89 859.311 160.184 859.311 172.32Z" fill="#191919"/>
<path d="M961.345 111.139H991.201V127.846C1001.88 114.865 1014.6 108.374 1029.36 108.374C1037.2 108.374 1044 109.987 1049.76 113.213C1055.53 116.439 1060.25 121.317 1063.94 127.846C1069.32 121.317 1075.12 116.439 1081.35 113.213C1087.57 109.987 1094.22 108.374 1101.29 108.374C1110.28 108.374 1117.89 110.218 1124.11 113.905C1130.34 117.515 1134.99 122.853 1138.06 129.92C1140.29 135.144 1141.41 143.593 1141.41 155.268V233.502H1109.01V163.565C1109.01 151.427 1107.9 143.593 1105.67 140.059C1102.67 135.45 1098.06 133.147 1091.84 133.147C1087.3 133.147 1083.04 134.529 1079.04 137.294C1075.05 140.059 1072.16 144.13 1070.4 149.507C1068.63 154.808 1067.74 163.219 1067.74 174.74V233.502H1035.35V166.445C1035.35 154.539 1034.78 146.858 1033.62 143.4C1032.47 139.944 1030.66 137.371 1028.21 135.681C1025.82 133.991 1022.56 133.147 1018.41 133.147C1013.41 133.147 1008.92 134.491 1004.92 137.179C1000.92 139.867 998.041 143.747 996.274 148.816C994.584 153.886 993.738 162.296 993.738 174.049V233.502H961.345V111.139Z" fill="#191919"/>
<path d="M1152.49 191.672L1173.35 190.404C1173.35 196.395 1174.28 201.503 1176.12 205.728C1177.96 209.954 1181.35 213.41 1186.26 216.098C1191.26 218.786 1197.06 220.13 1203.67 220.13C1212.89 220.13 1219.81 218.287 1224.42 214.6C1229.03 210.913 1231.34 206.573 1231.34 201.58C1231.34 197.97 1229.95 194.552 1227.19 191.326C1224.34 188.1 1217.39 184.144 1206.32 179.459C1195.33 174.696 1188.3 171.355 1185.23 169.434C1180.08 166.285 1176.2 162.598 1173.58 158.372C1170.97 154.071 1169.66 149.155 1169.66 143.625C1169.66 133.946 1173.51 125.651 1181.19 118.738C1188.88 111.824 1199.64 108.368 1213.47 108.368C1228.84 108.368 1240.52 111.939 1248.51 119.083C1256.58 126.15 1260.77 135.483 1261.08 147.081L1240.67 148.464C1240.37 141.09 1237.75 135.252 1232.84 130.95C1227.92 126.649 1220.96 124.498 1211.97 124.498C1204.75 124.498 1199.14 126.15 1195.14 129.453C1191.14 132.756 1189.15 136.328 1189.15 140.169C1189.15 144.009 1190.87 147.389 1194.33 150.308C1196.64 152.305 1202.59 155.378 1212.2 159.525C1228.19 166.438 1238.25 171.892 1242.4 175.886C1249.01 182.262 1252.32 190.02 1252.32 199.16C1252.32 205.229 1250.43 211.182 1246.67 217.02C1242.98 222.858 1237.29 227.543 1229.61 231.076C1222 234.534 1213.01 236.261 1202.63 236.261C1188.49 236.261 1176.47 232.766 1166.55 225.777C1156.64 218.786 1151.95 207.418 1152.49 191.672Z" fill="#191919"/>
<path d="M1258.09 187.063C1258.09 163.174 1265.13 143.394 1279.19 127.725C1290.79 114.82 1306.02 108.368 1324.84 108.368C1339.59 108.368 1351.47 112.976 1360.46 122.194C1369.53 131.412 1374.06 143.856 1374.06 159.525C1374.06 173.581 1371.22 186.678 1365.53 198.815C1359.85 210.875 1351.73 220.13 1341.21 226.582C1330.76 233.036 1319.73 236.261 1308.13 236.261C1298.6 236.261 1289.91 234.226 1282.07 230.155C1274.31 226.083 1268.35 220.323 1264.2 212.871C1260.13 205.421 1258.09 196.817 1258.09 187.063ZM1278.96 184.989C1278.96 196.511 1281.73 205.267 1287.26 211.259C1292.79 217.174 1299.82 220.13 1308.35 220.13C1312.81 220.13 1317.23 219.248 1321.62 217.481C1325.99 215.638 1330.07 212.871 1333.83 209.184C1337.6 205.498 1340.79 201.311 1343.4 196.626C1346.09 191.863 1348.24 186.755 1349.86 181.302C1352.24 173.697 1353.43 166.401 1353.43 159.41C1353.43 148.349 1350.63 139.784 1345.02 133.717C1339.47 127.571 1332.48 124.498 1324.03 124.498C1317.5 124.498 1311.55 126.073 1306.16 129.222C1300.79 132.296 1295.91 136.827 1291.52 142.818C1287.22 148.81 1284.03 155.8 1281.96 163.788C1279.96 171.7 1278.96 178.766 1278.96 184.989Z" fill="#191919"/>
<path d="M1374.54 233.496L1396.79 127.264H1378.11L1381.45 111.133H1400.13L1403.7 93.7347C1405.55 85.0547 1407.43 78.7946 1409.35 74.9539C1411.34 71.1133 1414.54 67.9639 1418.92 65.5059C1423.38 62.9711 1429.41 61.7036 1437.01 61.7036C1442.32 61.7036 1450.01 62.8174 1460.08 65.045L1456.27 83.2496C1449.2 81.4062 1443.29 80.4845 1438.51 80.4845C1434.44 80.4845 1431.33 81.5214 1429.17 83.5954C1427.1 85.5925 1425.3 90.3933 1423.76 97.9978L1421 111.133H1444.28L1440.94 127.264H1417.66L1395.41 233.496H1374.54Z" fill="#191919"/>
<path d="M1471.96 216.559L1468.5 233.611C1463.51 234.917 1458.67 235.57 1453.98 235.57C1445.68 235.57 1439.08 233.535 1434.14 229.463C1430.47 226.39 1428.61 222.204 1428.61 216.904C1428.61 214.216 1429.62 208.033 1431.61 198.354L1446.48 127.263H1430L1433.35 111.132H1449.82L1456.16 81.0602L1480.03 66.6577L1470.69 111.132H1491.21L1487.75 127.263H1467.35L1453.18 194.897C1451.4 203.5 1450.51 208.647 1450.51 210.336C1450.51 212.795 1451.21 214.676 1452.59 215.983C1454.05 217.288 1456.4 217.941 1459.63 217.941C1464.24 217.941 1468.34 217.481 1471.96 216.559Z" fill="#191919"/>
<path d="M178.369 131.045C147.016 93.1035 124.092 56.2994 133.47 3.91126C179.387 -6.14963 226.146 3.61357 263.507 28.4293C262.922 29.4332 262.501 30.5561 262.287 31.7679C253.099 83.8543 219.997 107.879 178.369 131.045Z" fill="#BE328D"/>
<path d="M123.422 161.276C89.994 120.711 69.8435 80.6563 69.9047 32.3652C10.2223 75.657 -16.2077 154.722 10.2694 227.433C15.1043 240.71 21.4273 253.017 28.9812 264.231C45.4345 218.77 78.0919 187.99 123.422 161.276Z" fill="#BE328D"/>
<path d="M79.9708 313.328C116.816 336.22 162.094 344.84 206.524 334.861C206.538 334.642 206.565 334.415 206.607 334.182C215.38 284.452 196.283 249.596 168.152 214.26L229.615 192.297C255.778 227.299 271.544 262.755 272.337 304.285C329.82 260.533 354.874 182.965 328.861 111.531C324.48 99.5019 318.879 88.2696 312.246 77.9233C295.288 121.763 262.971 151.741 218.739 177.785C210.488 182.642 202.299 187.285 194.263 191.842C139.321 223.001 91.5395 250.097 79.9708 313.328Z" fill="#BE328D"/>
</g>
<defs>
<clipPath id="clip0_3052_914">
<rect width="1500" height="338.964" fill="white"/>
</clipPath>
</defs>
</svg>
